<?xml version="1.0" encoding="UTF-8"?>
<svg version="1.1" xmlns="http://www.w3.org/2000/svg" width="1200" height="630">
<path d="M0 0 C396 0 792 0 1200 0 C1200 207.9 1200 415.8 1200 630 C804 630 408 630 0 630 C0 422.1 0 214.2 0 0 Z " fill="#FEFEFE" transform="translate(0,0)"/>
<path d="M0 0 C192.06 0 384.12 0 582 0 C582 207.9 582 415.8 582 630 C389.94 630 197.88 630 0 630 C0 629.67 0 629.34 0 629 C1.12535156 628.96261719 2.25070312 628.92523437 3.41015625 628.88671875 C12.17705912 628.53485051 20.47911351 627.72330927 29.0703125 625.8203125 C33.61768674 624.82726175 38.2099402 624.1801018 42.8125 623.5 C48.57543456 622.62928774 54.06954347 621.60952387 59.609375 619.75 C62.58178167 618.81748026 65.5823779 618.16687608 68.625 617.5 C72.33314679 616.67306586 75.84628224 615.78375167 79.375 614.375 C83.07004782 612.97343014 86.1011745 612.40612766 90 612 C90 611.34 90 610.68 90 610 C91.03898438 609.61328125 92.07796875 609.2265625 93.1484375 608.828125 C106.52113552 604.00292502 106.52113552 604.00292502 119.5 598.25 C122 597 122 597 124 597 C124 596.34 124 595.68 124 595 C125.02738281 594.50371094 126.05476562 594.00742187 127.11328125 593.49609375 C135.42125257 589.44016247 143.28900263 585.12113351 151 580 C152.81164758 578.87362781 154.62416238 577.74864938 156.4375 576.625 C162.54063291 572.73881708 168.28229168 568.4283459 174 564 C175.30130859 562.99259766 175.30130859 562.99259766 176.62890625 561.96484375 C181.77148436 557.91677366 186.69078173 553.67480818 191.51953125 549.2578125 C193.10333217 547.81617954 194.7035408 546.39223534 196.32421875 544.9921875 C208.00996357 534.83234985 218.46077335 523.17815205 228 511 C228.5878125 510.26910156 229.175625 509.53820312 229.78125 508.78515625 C239.52501428 496.53901614 248.98660802 483.02678397 256 469 C256.66 469 257.32 469 258 469 C258.14501953 467.97132813 258.14501953 467.97132813 258.29296875 466.921875 C259.15330117 463.36646808 260.6281154 460.49613735 262.3125 457.25 C269.77023409 442.66107902 275.63830001 427.47038277 281 412 C281.45039094 410.73693284 281.90091431 409.4739129 282.3515625 408.2109375 C285.04302451 400.5465028 286.99301146 393.07093802 288 385 C288.66 385 289.32 385 290 385 C290.12117188 383.8140625 290.24234375 382.628125 290.3671875 381.40625 C291.21066381 373.22291589 292.07643852 365.04253028 293.0625 356.875 C293.21847656 355.57304687 293.37445312 354.27109375 293.53515625 352.9296875 C294 350 294 350 295 349 C295.89163624 342.65917015 296.14776524 336.45416165 296.1328125 330.05859375 C296.13376923 329.13264908 296.13472595 328.20670441 296.13571167 327.25270081 C296.13638831 325.30217419 296.13457028 323.35164526 296.13037109 321.40112305 C296.1250586 318.46983559 296.13031158 315.53870437 296.13671875 312.60742188 C297.30171037 294.85042764 297.30171037 294.85042764 294 278 C293.35476281 274.45706863 292.91776054 270.88113455 292.4375 267.3125 C292.29892578 266.33087891 292.16035156 265.34925781 292.01757812 264.33789062 C291.31456664 259.17439249 290.83238644 254.21059542 291 249 C290.34 249 289.68 249 289 249 C288.16011547 245.08470852 287.32923187 241.16756028 286.5 237.25 C286.26152344 236.13882813 286.02304687 235.02765625 285.77734375 233.8828125 C285.43896484 232.27792969 285.43896484 232.27792969 285.09375 230.640625 C284.88427734 229.65610352 284.67480469 228.67158203 284.45898438 227.65722656 C284 225 284 225 284 221 C283.34 221 282.68 221 282 221 C280.80712589 217.12315913 280 214.08378077 280 210 C279.34 210 278.68 210 278 210 C277.32815382 207.89748139 276.66269032 205.79292237 276 203.6875 C275.62875 202.51574219 275.2575 201.34398437 274.875 200.13671875 C274 197 274 197 274 194 C273.34 194 272.68 194 272 194 C271.61521484 193.03126953 271.61521484 193.03126953 271.22265625 192.04296875 C268.50452636 185.35289148 265.56699137 178.7865772 262.5 172.25 C262.13269775 171.45875732 261.76539551 170.66751465 261.38696289 169.85229492 C258.92793879 164.65571297 256.14601534 159.80916089 253 155 C252.0625 153.54166667 251.125 152.08333333 250.1875 150.625 C249.76855469 149.97789062 249.34960938 149.33078125 248.91796875 148.6640625 C248 147 248 147 248 145 C247.34 145 246.68 145 246 145 C242 138.25 242 138.25 242 136 C241.34 136 240.68 136 240 136 C238.91142134 134.44101062 237.90566332 132.82399356 236.9375 131.1875 C231.3070599 122.09486381 224.31154122 114.22898273 217.125 106.34375 C215.17505276 104.19307289 213.26973871 102.01175029 211.375 99.8125 C208.08215753 96.03182901 204.57871824 92.50777449 201 89 C200.21238281 88.19433594 199.42476562 87.38867188 198.61328125 86.55859375 C196.11489411 84.11248975 193.5444875 81.92913331 190.8125 79.75 C187.07255609 76.73197556 183.46642178 73.63674789 179.9375 70.375 C172.63105549 63.73696839 164.47996774 58.57998047 156.0546875 53.48046875 C155.37664062 52.99191406 154.69859375 52.50335938 154 52 C154 51.34 154 50.68 154 50 C153.21625 49.79375 152.4325 49.5875 151.625 49.375 C146.69637411 47.50552121 142.46286469 44.78025296 138 42 C132.43598704 38.55876993 127.0580756 35.5067899 121 33 C119.24790946 32.08733548 117.49819571 31.170103 115.75 30.25 C107.47960012 26.05150619 98.73168821 23.087145 90 20 C90 19.34 90 18.68 90 18 C89.01 17.87625 88.02 17.7525 87 17.625 C82.91119976 17.04805273 78.99138113 16.05036346 75 15 C75 14.34 75 13.68 75 13 C73.989375 12.896875 72.97875 12.79375 71.9375 12.6875 C65.22756227 11.8624082 58.61588222 10.36969437 52 9 C52 8.34 52 7.68 52 7 C50.72125 6.87882813 49.4425 6.75765625 48.125 6.6328125 C46.41663581 6.4638534 44.70830416 6.29456501 43 6.125 C42.16082031 6.04636719 41.32164062 5.96773438 40.45703125 5.88671875 C35.89397028 5.4268754 31.68517975 4.6727905 27.24609375 3.47705078 C22.24257471 2.41434685 17.09301909 2.2308696 12 1.875 C10.84371094 1.78863281 9.68742188 1.70226562 8.49609375 1.61328125 C5.66445695 1.40266364 2.83251434 1.19840359 0 1 C0 0.67 0 0.34 0 0 Z " fill="#FEFEFE" transform="translate(618,0)"/>
<path d="M0 0 C190.74 0 381.48 0 578 0 C578 0.33 578 0.66 578 1 C577.14535156 1.06058594 576.29070313 1.12117187 575.41015625 1.18359375 C574.30542969 1.26738281 573.20070313 1.35117187 572.0625 1.4375 C570.96035156 1.51871094 569.85820313 1.59992187 568.72265625 1.68359375 C566.08890097 1.70418084 566.08890097 1.70418084 565 3 C563.30712811 3.29851062 561.60393479 3.53895781 559.8984375 3.75390625 C558.85042969 3.88603516 557.80242188 4.01816406 556.72265625 4.15429688 C555.61792969 4.28900391 554.51320313 4.42371094 553.375 4.5625 C552.29347656 4.70107422 551.21195313 4.83964844 550.09765625 4.98242188 C544.69180923 5.65237727 539.4473358 6.17949674 534 6 C534 6.66 534 7.32 534 8 C530.93929066 8.67507066 527.8761791 9.33854922 524.8125 10 C523.94818359 10.19078125 523.08386719 10.3815625 522.19335938 10.578125 C521.35224609 10.75859375 520.51113281 10.9390625 519.64453125 11.125 C518.87471924 11.29257813 518.10490723 11.46015625 517.31176758 11.6328125 C514.83939753 12.02550915 512.49924191 12.06185285 510 12 C510 12.66 510 13.32 510 14 C509.40050537 14.16604736 508.80101074 14.33209473 508.18334961 14.50317383 C505.43331269 15.26794246 502.68541997 16.04016103 499.9375 16.8125 C498.99455078 17.07353516 498.05160156 17.33457031 497.08007812 17.60351562 C492.94585227 18.77031805 488.929601 19.94241613 485.00390625 21.69921875 C482 23 482 23 479 23 C479 23.66 479 24.32 479 25 C477.98679687 25.39832031 476.97359375 25.79664062 475.9296875 26.20703125 C474.57806929 26.74204679 473.22650991 27.27721096 471.875 27.8125 C471.20984375 28.07353516 470.5446875 28.33457031 469.859375 28.60351562 C466.7000091 29.85796973 463.6726994 31.1651691 460.6328125 32.69921875 C458 34 458 34 456 34 C456 34.66 456 35.32 456 36 C455.43796875 36.22171875 454.8759375 36.4434375 454.296875 36.671875 C447.46729664 39.56292351 441.16965816 43.13257108 434.8125 46.9375 C433.96977539 47.43926758 433.12705078 47.94103516 432.25878906 48.45800781 C427.56586408 51.29880156 423.11164407 54.30610518 418.76245117 57.64916992 C416.47551811 59.40198896 414.11062551 61.03580448 411.75 62.6875 C406.9471478 66.15992223 402.63947023 69.96249825 398.33203125 74.01367188 C395.57847585 76.59290659 392.80140464 78.97146089 389.75 81.1875 C385.0764622 84.71405233 381.00727374 88.8056982 376.875 92.9375 C376.2056543 93.60612061 375.53630859 94.27474121 374.84667969 94.96362305 C370.37309869 99.48630971 366.13879519 104.17058564 362 109 C361.24275635 109.87458862 361.24275635 109.87458862 360.47021484 110.7668457 C359.05686255 112.40152356 357.65237651 114.04340333 356.25 115.6875 C355.78207031 116.22955078 355.31414062 116.77160156 354.83203125 117.33007812 C352.75680084 119.76685718 350.92242269 122.13184585 349.296875 124.89453125 C348.65492188 125.93673828 348.65492188 125.93673828 348 127 C347.34 127 346.68 127 346 127 C345.71125 127.7425 345.4225 128.485 345.125 129.25 C344.17697356 131.56739797 343.15154089 133.77917115 342 136 C341.34 136 340.68 136 340 136 C339.5978125 137.10988281 339.5978125 137.10988281 339.1875 138.2421875 C338.0335612 140.92205853 336.76844264 142.82092329 335 145.125 C329.8937365 152.22238512 326.13106684 160.05643191 322.14990234 167.81567383 C321.07183903 169.86353635 319.94182046 171.86750901 318.77734375 173.8671875 C317.07305992 176.87122186 315.96762674 179.69394198 315 183 C314.34 183 313.68 183 313 183 C312.86722656 183.62648437 312.73445313 184.25296875 312.59765625 184.8984375 C312.42105469 185.71570313 312.24445313 186.53296875 312.0625 187.375 C311.80146484 188.59316406 311.80146484 188.59316406 311.53515625 189.8359375 C311 192 311 192 310 194 C309.34 194 308.68 194 308 194 C307.87882812 194.56847656 307.75765625 195.13695312 307.6328125 195.72265625 C306.58677946 200.54245464 305.40795516 205.2732934 304 210 C303.34 210 302.68 210 302 210 C301.896875 210.99 301.79375 211.98 301.6875 213 C301.29260968 215.80594602 300.69653492 217.76555965 299.625 220.46875 C297.49768077 225.9863443 296.45784984 231.71442618 295.3125 237.5 C295.08755859 238.60859375 294.86261719 239.7171875 294.63085938 240.859375 C294.08136148 243.57179015 293.53790296 246.28526601 293 249 C292.34 249 291.68 249 291 249 C290.95101563 249.83660156 290.90203125 250.67320312 290.8515625 251.53515625 C289.32147395 275.3570521 289.32147395 275.3570521 287 280 C286.00155577 287.75438803 285.85072087 295.54795144 285.8671875 303.35546875 C285.86623077 304.38255447 285.86527405 305.4096402 285.86428833 306.46784973 C285.86361369 308.61813418 285.86541743 310.76842075 285.86962891 312.91870117 C285.87500409 316.18998818 285.86965086 319.46113896 285.86328125 322.73242188 C285.86394184 324.8359378 285.86522259 326.93945364 285.8671875 329.04296875 C285.86415115 330.49173653 285.86415115 330.49173653 285.86105347 331.96977234 C285.28014373 341.59844698 285.28014373 341.59844698 288 350 C288.37164402 352.23873528 288.68446983 354.48728069 288.97265625 356.73828125 C289.06002548 357.415457 289.14739471 358.09263275 289.2374115 358.79032898 C289.42179075 360.2267393 289.60406724 361.66342084 289.78442383 363.1003418 C290.06011142 365.29349833 290.34297968 367.48563703 290.62695312 369.67773438 C292 380.42947201 292 380.42947201 292 385 C292.66 385 293.32 385 294 385 C294.14695312 385.86238281 294.29390625 386.72476562 294.4453125 387.61328125 C295.83498931 395.17663722 297.61530623 402.47837197 299.9375 409.8125 C300.17807129 410.5753833 300.41864258 411.3382666 300.66650391 412.12426758 C302.24383902 416.9907703 304.04749833 421.73383858 305.97583008 426.47143555 C306.98826063 428.97101676 307.96340897 431.48225975 308.9296875 434 C313.39792528 445.61023271 313.39792528 445.61023271 319.4375 456.453125 C321.52675988 459.8586186 323.24711118 463.41251992 325 467 C327.72946671 472.57766262 330.62703479 477.93603863 333.96875 483.1796875 C335 485 335 485 335 487 C335.66 487 336.32 487 337 487 C338.48046875 489.08984375 338.48046875 489.08984375 340.1875 491.9375 C343.48153223 497.25967604 347.0726692 502.13517734 351 507 C351.65097656 507.825 352.30195313 508.65 352.97265625 509.5 C356.63818856 514.13311984 360.38080836 518.66937398 364.3046875 523.0859375 C365.40629835 524.32969168 366.49566377 525.58443937 367.5703125 526.8515625 C374.6535356 535.16665049 382.44586119 543.05692542 390.78515625 550.1171875 C392.52437436 551.59567626 394.23472616 553.10812973 395.93359375 554.6328125 C405.34973676 563.02181613 415.47453238 570.07727043 426 577 C426.67160156 577.44537109 427.34320313 577.89074219 428.03515625 578.34960938 C434.58985186 582.69024456 441.20727586 586.79986356 448.16796875 590.46875 C450.83883929 591.91286207 453.43783815 593.45212118 456.04248047 595.01147461 C463.42820519 599.39706701 470.80608116 602.40982505 479 605 C479 605.66 479 606.32 479 607 C479.56847656 607.10957031 480.13695312 607.21914063 480.72265625 607.33203125 C481.49480469 607.49058594 482.26695312 607.64914062 483.0625 607.8125 C483.81660156 607.96332031 484.57070313 608.11414063 485.34765625 608.26953125 C488.06913997 609.01904149 490.53866536 610.09495898 493.11547852 611.2355957 C496.30486351 612.52928198 499.60535043 613.34710506 502.9375 614.1875 C503.62134766 614.36474609 504.30519531 614.54199219 505.00976562 614.72460938 C506.6719081 615.15467421 508.33577788 615.57805437 510 616 C510 616.66 510 617.32 510 618 C510.83917969 618.03867188 510.83917969 618.03867188 511.6953125 618.078125 C516.78437331 618.43812287 521.37082275 619.31347566 526.25 620.8125 C543.4501036 625.92604431 561.1560557 627.78370454 579 629 C579 629.33 579 629.66 579 630 C387.93 630 196.86 630 0 630 C0 422.1 0 214.2 0 0 Z " fill="#FEFEFE" transform="translate(0,0)"/>
<path d="M0 0 C1.32268387 0.00040787 1.32268387 0.00040787 2.67208862 0.00082397 C21.10891814 0.0269222 39.49006958 0.40380832 57.5546875 4.45703125 C62.60283284 5.58892955 67.70425785 6.37893281 72.8125 7.1875 C72.8125 7.8475 72.8125 8.5075 72.8125 9.1875 C73.55113281 9.22488281 74.28976562 9.26226562 75.05078125 9.30078125 C82.30234667 9.7707048 88.88122349 11.01806503 95.8125 13.1875 C95.8125 13.8475 95.8125 14.5075 95.8125 15.1875 C96.988125 15.31125 98.16375 15.435 99.375 15.5625 C103.35370426 16.05185935 106.99016559 16.9930205 110.8125 18.1875 C110.8125 18.8475 110.8125 19.5075 110.8125 20.1875 C112.05 20.414375 113.2875 20.64125 114.5625 20.875 C124.94585762 23.19866219 134.40210968 28.37945904 143.8125 33.1875 C145.43734522 33.9794843 147.06233918 34.77116352 148.6875 35.5625 C155.21850388 38.82272649 161.49760026 42.53227035 167.8125 46.1875 C170.14425297 47.52362144 172.47824156 48.85575662 174.8125 50.1875 C174.8125 50.8475 174.8125 51.5075 174.8125 52.1875 C175.53953125 52.45175781 176.2665625 52.71601562 177.015625 52.98828125 C187.93720802 57.67113877 197.64625781 67.04869688 206.32421875 74.984375 C209.33558648 77.65064093 212.47976331 80.08662996 215.70703125 82.484375 C218.26635064 84.55462222 220.50712447 86.8375927 222.8125 89.1875 C223.81575853 90.17126322 224.82105899 91.1529473 225.828125 92.1328125 C231.85535504 98.0405906 237.52179334 104.01318939 242.765625 110.64453125 C244.71639673 113.06810453 246.76139964 115.34345852 248.875 117.625 C260.8125 130.88355131 260.8125 130.88355131 260.8125 136.1875 C261.4725 136.1875 262.1325 136.1875 262.8125 136.1875 C266.8125 141.48161765 266.8125 141.48161765 266.8125 145.1875 C267.4725 145.1875 268.1325 145.1875 268.8125 145.1875 C274.671875 155.44140625 274.671875 155.44140625 275.75024414 157.33007812 C276.76138882 159.09812886 277.77705963 160.86358883 278.79296875 162.62890625 C281.04576237 166.57545052 283.22472938 170.55929804 285.375 174.5625 C285.76107422 175.26632813 286.14714844 175.97015625 286.54492188 176.6953125 C292.8125 188.39763895 292.8125 188.39763895 292.8125 194.1875 C293.4725 194.1875 294.1325 194.1875 294.8125 194.1875 C295.48434618 196.29001861 296.14980968 198.39457763 296.8125 200.5 C297.18375 201.67175781 297.555 202.84351563 297.9375 204.05078125 C298.8125 207.1875 298.8125 207.1875 298.8125 210.1875 C299.4725 210.1875 300.1325 210.1875 300.8125 210.1875 C302.00537411 214.06434087 302.8125 217.10371923 302.8125 221.1875 C303.4725 221.1875 304.1325 221.1875 304.8125 221.1875 C305.65441873 224.91478171 306.4845168 228.64460003 307.3125 232.375 C307.55097656 233.43009766 307.78945313 234.48519531 308.03515625 235.57226562 C308.37353516 237.10463867 308.37353516 237.10463867 308.71875 238.66796875 C308.92822266 239.60535889 309.13769531 240.54274902 309.35351562 241.50854492 C309.80217088 244.12721199 309.89657959 246.53689083 309.8125 249.1875 C310.4725 249.1875 311.1325 249.1875 311.8125 249.1875 C311.98640259 250.48953369 311.98640259 250.48953369 312.16381836 251.81787109 C312.59521288 255.03489707 313.02979443 258.25147164 313.46655273 261.46777344 C313.65500965 262.86050415 313.84219122 264.25340805 314.02807617 265.64648438 C314.29531723 267.6475854 314.56751012 269.64802317 314.83984375 271.6484375 C315.00218506 272.85290527 315.16452637 274.05737305 315.33178711 275.29833984 C315.65536139 278.11851261 315.65536139 278.11851261 316.8125 280.1875 C318.07732805 291.96979888 317.96873761 303.86504441 317.94287109 315.69897461 C317.93746316 318.64507077 317.94287625 321.59101752 317.94921875 324.53710938 C317.9485586 326.4401045 317.94727876 328.34309953 317.9453125 330.24609375 C317.94733673 331.1118956 317.94936096 331.97769745 317.95144653 332.86973572 C317.89348207 348.10651793 317.89348207 348.10651793 315.8125 350.1875 C315.4530719 352.42656338 315.15185881 354.67501636 314.875 356.92578125 C314.79000244 357.602957 314.70500488 358.28013275 314.61743164 358.97782898 C314.34507235 361.15140434 314.07838769 363.32562421 313.8125 365.5 C313.54599162 367.66357662 313.27822486 369.82697426 313.00756836 371.99003601 C312.7612404 373.96084942 312.5191896 375.93219601 312.27734375 377.90356445 C311.92245117 380.4107389 311.50262894 382.75792549 310.8125 385.1875 C310.1525 385.1875 309.4925 385.1875 308.8125 385.1875 C308.84859375 386.20585937 308.8846875 387.22421875 308.921875 388.2734375 C308.81357708 392.14895606 308.18725385 395.11811619 307.0625 398.8125 C306.51335937 400.63394531 306.51335937 400.63394531 305.953125 402.4921875 C305.57671875 403.71164062 305.2003125 404.93109375 304.8125 406.1875 C304.47734375 407.32445312 304.1421875 408.46140625 303.796875 409.6328125 C302.0776564 415.40447494 300.13689291 420.97698955 297.87402344 426.55566406 C296.85160296 429.090552 295.86238711 431.63579336 294.8828125 434.1875 C291.79672905 442.15335499 288.82689427 449.81779839 284.1328125 457 C281.82273025 460.82735521 280.32892857 464.99502102 278.8125 469.1875 C278.1525 469.1875 277.4925 469.1875 276.8125 469.1875 C276.56628906 470.04214844 276.32007813 470.89679688 276.06640625 471.77734375 C274.71680466 475.44775555 272.90304845 478.51813197 270.75 481.75 C270.35151855 482.35714844 269.95303711 482.96429688 269.54248047 483.58984375 C268.30796472 485.46176381 267.06193357 487.3255114 265.8125 489.1875 C265.08417969 490.27933594 264.35585938 491.37117188 263.60546875 492.49609375 C254.77396965 505.49669692 245.00688267 517.29238533 234.20751953 528.6953125 C232.41982495 530.60752623 230.70377529 532.575409 229 534.5625 C223.13143701 541.34170208 216.64278059 547.39427772 209.8125 553.1875 C208.50345703 554.31285156 208.50345703 554.31285156 207.16796875 555.4609375 C196.80617977 564.25528049 185.97599998 572.42399486 174.41015625 579.578125 C172.65201964 580.66737655 170.90995769 581.78293653 169.18359375 582.921875 C150.5409292 595.1875 150.5409292 595.1875 144.8125 595.1875 C144.8125 595.8475 144.8125 596.5075 144.8125 597.1875 C137.90495707 600.47236864 130.96009499 603.61915942 123.875 606.5 C122.66972656 606.99113281 121.46445312 607.48226562 120.22265625 607.98828125 C117.05672598 609.10161526 114.13267135 609.75663807 110.8125 610.1875 C110.8125 610.8475 110.8125 611.5075 110.8125 612.1875 C109.90628906 612.44144531 109.00007813 612.69539062 108.06640625 612.95703125 C100.1068342 615.18712557 100.1068342 615.18712557 92.25 617.75 C87.62584563 619.33420103 82.90852393 620.37467666 78.140625 621.43359375 C74.99206709 622.14682342 71.87385612 622.93632543 68.75 623.75 C63.7920374 625.00089201 58.84080666 625.93553385 53.7890625 626.71875 C51.86224104 627.02218645 49.93955545 627.35377515 48.0234375 627.71875 C42.23476312 628.80312977 36.49139695 629.42063203 30.61328125 629.734375 C29.83168137 629.77649612 29.05008148 629.81861725 28.24479675 629.86201477 C19.37311858 630.30564561 10.50634808 630.38779891 1.625 630.375 C0.77466187 630.37406342 -0.07567627 630.37312683 -0.95178223 630.37216187 C-25.72691875 630.31330598 -51.70330632 629.19263891 -75.27539062 620.84106445 C-77.73260503 620.00118154 -80.19789411 619.46728699 -82.75 619 C-84.02037109 618.76216797 -84.02037109 618.76216797 -85.31640625 618.51953125 C-85.93386719 618.40996094 -86.55132812 618.30039062 -87.1875 618.1875 C-87.1875 617.5275 -87.1875 616.8675 -87.1875 616.1875 C-88.239375 616.105 -89.29125 616.0225 -90.375 615.9375 C-100.01535608 614.72605702 -109.29469559 610.96142151 -118.1875 607.1875 C-118.1875 606.5275 -118.1875 605.8675 -118.1875 605.1875 C-118.991875 605.105 -119.79625 605.0225 -120.625 604.9375 C-139.36438431 600.99236646 -160.35898218 586.63605203 -175.45703125 575.23828125 C-177.45606088 573.73686415 -179.46130914 572.28298391 -181.51171875 570.85546875 C-189.81372815 565.06859162 -197.58527308 558.8637338 -205.1875 552.1875 C-206.04988281 551.43726563 -206.91226563 550.68703125 -207.80078125 549.9140625 C-217.20077793 541.6084833 -226.07300195 532.75534099 -234.1875 523.1875 C-235.33233299 521.89494662 -236.47819222 520.60330158 -237.625 519.3125 C-243.92765443 512.07353106 -249.71856686 504.57261132 -255.1875 496.6875 C-255.68088867 495.98044922 -256.17427734 495.27339844 -256.68261719 494.54492188 C-260.1875 489.43022381 -260.1875 489.43022381 -260.1875 487.1875 C-260.8475 487.1875 -261.5075 487.1875 -262.1875 487.1875 C-262.57228516 486.49140625 -262.57228516 486.49140625 -262.96484375 485.78125 C-265.06343352 481.99389607 -267.17039159 478.21215122 -269.3125 474.44921875 C-275.47335649 463.60911406 -281.31417103 452.6770499 -286.1875 441.1875 C-286.44144531 440.59340332 -286.69539063 439.99930664 -286.95703125 439.38720703 C-291.18750137 429.45574378 -294.97403672 419.49916931 -298.1875 409.1875 C-298.41743652 408.46433594 -298.64737305 407.74117188 -298.88427734 406.99609375 C-299.60184501 404.73019288 -300.30334528 402.45990957 -301 400.1875 C-301.32895264 399.14625977 -301.32895264 399.14625977 -301.66455078 398.08398438 C-303.01264937 393.57944186 -303.39894241 389.8271506 -303.1875 385.1875 C-303.8475 385.1875 -304.5075 385.1875 -305.1875 385.1875 C-305.83652029 381.04215915 -306.48113344 376.8961442 -307.125 372.75 C-307.39860352 371.00299805 -307.39860352 371.00299805 -307.67773438 369.22070312 C-308.46791778 364.12042844 -309.23393315 359.03796844 -309.75390625 353.90234375 C-309.77405489 350.39415764 -309.77405489 350.39415764 -311.1875 349.1875 C-312.14147153 342.51264109 -312.33442645 335.96482642 -312.3203125 329.23046875 C-312.32126923 328.2062532 -312.32222595 327.18203766 -312.32321167 326.12678528 C-312.32388862 323.97116026 -312.32206836 321.81553315 -312.31787109 319.65991211 C-312.31253266 316.3949719 -312.31782415 313.13017027 -312.32421875 309.86523438 C-312.32355756 307.7578122 -312.32227555 305.65039011 -312.3203125 303.54296875 C-312.32233673 302.58319626 -312.32436096 301.62342377 -312.32644653 300.63456726 C-312.26451302 282.34152605 -312.26451302 282.34152605 -310.1875 278.1875 C-309.82581487 276.01371545 -309.50919831 273.83235847 -309.21484375 271.6484375 C-309.03759766 270.34648437 -308.86035156 269.04453125 -308.67773438 267.703125 C-308.49341305 266.32292689 -308.30916926 264.94271841 -308.125 263.5625 C-307.93717443 262.17443509 -307.74902735 260.78641364 -307.56054688 259.3984375 C-307.09969275 255.99520701 -306.64215446 252.59156336 -306.1875 249.1875 C-305.5275 249.1875 -304.8675 249.1875 -304.1875 249.1875 C-304.16171875 248.59066406 -304.1359375 247.99382812 -304.109375 247.37890625 C-303.70880713 241.25203862 -302.70032013 235.404736 -301.3125 229.4375 C-301.15104492 228.72924072 -300.98958984 228.02098145 -300.82324219 227.29125977 C-299.70899553 222.66497257 -298.13808634 218.52633887 -296.1875 214.1875 C-295.81441369 212.86473944 -295.45703585 211.53517923 -295.1875 210.1875 C-294.5275 210.1875 -293.8675 210.1875 -293.1875 210.1875 C-293.27 209.40375 -293.3525 208.62 -293.4375 207.8125 C-293.09258489 202.81123094 -291.20103919 198.7359412 -289.1875 194.1875 C-288.5275 194.1875 -287.8675 194.1875 -287.1875 194.1875 C-286.878125 192.929375 -286.56875 191.67125 -286.25 190.375 C-285.64771952 187.92572606 -284.98661359 185.58484077 -284.1875 183.1875 C-283.5275 183.1875 -282.8675 183.1875 -282.1875 183.1875 C-282.0225 182.15625 -281.8575 181.125 -281.6875 180.0625 C-280.13033543 173.77822869 -276.47467411 168.41253455 -273.19384766 162.90527344 C-271.76891216 160.47299636 -270.44790971 157.98892446 -269.125 155.5 C-265.51657656 148.82688816 -261.39318094 142.49602142 -257.1875 136.1875 C-256.5275 136.1875 -255.8675 136.1875 -255.1875 136.1875 C-254.754375 134.7953125 -254.754375 134.7953125 -254.3125 133.375 C-253.1875 130.1875 -253.1875 130.1875 -251.1875 127.1875 C-250.5275 127.1875 -249.8675 127.1875 -249.1875 127.1875 C-248.94386719 126.46175781 -248.70023437 125.73601562 -248.44921875 124.98828125 C-247.03235241 121.84310117 -245.35634189 119.88545719 -243 117.375 C-242.19175781 116.50230469 -241.38351562 115.62960938 -240.55078125 114.73046875 C-239.38095703 113.47169922 -239.38095703 113.47169922 -238.1875 112.1875 C-237.01464939 110.85960304 -235.84742079 109.52670597 -234.6875 108.1875 C-233.52139889 106.85367202 -232.35470784 105.52035961 -231.1875 104.1875 C-230.53523438 103.44113281 -229.88296875 102.69476563 -229.2109375 101.92578125 C-220.94680414 92.5948234 -212.42078542 83.27691115 -202.359375 75.859375 C-199.85469348 73.93131081 -197.5695703 71.83418307 -195.25 69.6875 C-190.50574785 65.36658112 -185.50155205 61.76635138 -180.1875 58.1875 C-179.20007813 57.48882812 -178.21265625 56.79015625 -177.1953125 56.0703125 C-149.0566609 36.1875 -149.0566609 36.1875 -141.1875 36.1875 C-141.1875 35.5275 -141.1875 34.8675 -141.1875 34.1875 C-138.79246313 33.06077825 -136.3965129 31.93607442 -134 30.8125 C-133.32646484 30.49539062 -132.65292969 30.17828125 -131.95898438 29.8515625 C-121.99926758 25.1875 -121.99926758 25.1875 -118.1875 25.1875 C-118.1875 24.5275 -118.1875 23.8675 -118.1875 23.1875 C-94.97390777 14.1875 -94.97390777 14.1875 -87.1875 14.1875 C-87.1875 13.5275 -87.1875 12.8675 -87.1875 12.1875 C-83.93878084 11.51448711 -80.68833621 10.8502049 -77.4375 10.1875 C-76.51710938 9.99671875 -75.59671875 9.8059375 -74.6484375 9.609375 C-73.75898437 9.42890625 -72.86953125 9.2484375 -71.953125 9.0625 C-71.13618164 8.89492187 -70.31923828 8.72734375 -69.47753906 8.5546875 C-67.1875 8.1875 -67.1875 8.1875 -63.1875 8.1875 C-63.1875 7.5275 -63.1875 6.8675 -63.1875 6.1875 C-62.25365479 6.07156494 -61.31980957 5.95562988 -60.35766602 5.83618164 C-56.9039328 5.40535313 -53.4507244 4.9707135 -49.99780273 4.53344727 C-48.50125136 4.34473258 -47.00450549 4.15755381 -45.50756836 3.97192383 C-43.35998795 3.70534235 -41.2131601 3.4333039 -39.06640625 3.16015625 C-37.7729126 2.99781494 -36.47941895 2.83547363 -35.14672852 2.66821289 C-32.30816736 2.50302661 -32.30816736 2.50302661 -31.1875 1.1875 C-20.93006982 -0.36413654 -10.34792527 -0.01196124 0 0 Z M-68.09155273 56.50268555 C-71.10393251 57.48692845 -74.15728107 58.19134634 -77.25 58.875 C-78.37535156 59.12636719 -79.50070312 59.37773438 -80.66015625 59.63671875 C-81.49417969 59.81847656 -82.32820312 60.00023437 -83.1875 60.1875 C-83.1875 60.8475 -83.1875 61.5075 -83.1875 62.1875 C-84.198125 62.31125 -85.20875 62.435 -86.25 62.5625 C-90.06687612 63.16835335 -93.50250112 64.05943912 -97.1875 65.1875 C-97.1875 65.8475 -97.1875 66.5075 -97.1875 67.1875 C-97.91066406 67.32027344 -98.63382813 67.45304687 -99.37890625 67.58984375 C-108.40580574 69.51072779 -116.07461773 73.62101008 -123.92578125 78.28515625 C-125.95853333 79.47072543 -128.02468205 80.60276006 -130.1328125 81.6484375 C-141.67947203 87.46606391 -152.14493513 95.10637358 -162.1875 103.1875 C-163.074375 103.88101563 -163.96125 104.57453125 -164.875 105.2890625 C-188.22247908 123.84196998 -208.22620964 146.0177729 -224.1875 171.1875 C-224.85265625 172.22132813 -225.5178125 173.25515625 -226.203125 174.3203125 C-234.95253054 186.96997466 -234.95253054 186.96997466 -239.1875 201.1875 C-239.8475 201.1875 -240.5075 201.1875 -241.1875 201.1875 C-241.69365298 202.45589526 -242.19219099 203.72733102 -242.6875 205 C-243.10515625 206.06154297 -243.10515625 206.06154297 -243.53125 207.14453125 C-244.3404162 209.30591216 -244.3404162 209.30591216 -244.1875 212.1875 C-244.8475 212.1875 -245.5075 212.1875 -246.1875 212.1875 C-246.86114661 214.26858685 -247.52616798 216.3524671 -248.1875 218.4375 C-248.55875 219.59765625 -248.93 220.7578125 -249.3125 221.953125 C-250.36159595 225.2725928 -250.36159595 225.2725928 -250.1875 229.1875 C-250.8475 229.1875 -251.5075 229.1875 -252.1875 229.1875 C-252.69556447 230.91431437 -253.19360467 232.64407979 -253.6875 234.375 C-253.9659375 235.33792969 -254.244375 236.30085937 -254.53125 237.29296875 C-255.15427608 240.04095876 -255.31052812 242.38348416 -255.1875 245.1875 C-255.8475 245.1875 -256.5075 245.1875 -257.1875 245.1875 C-257.29819824 245.776521 -257.40889648 246.36554199 -257.52294922 246.97241211 C-258.03461966 249.69022874 -258.54854772 252.40761399 -259.0625 255.125 C-259.23652344 256.05119141 -259.41054688 256.97738281 -259.58984375 257.93164062 C-260.40837892 262.25168735 -261.25627741 266.55253848 -262.25 270.8359375 C-268.37164245 298.10589449 -268.89509183 335.31428712 -261.1875 362.1875 C-260.48093778 366.13101137 -259.95536334 370.10239486 -259.41992188 374.07226562 C-258.73154196 378.79204171 -257.67836809 382.97462435 -255.89428711 387.39868164 C-254.62761472 390.60452227 -253.87522385 393.94554382 -253.03125 397.28125 C-251.9524739 400.99703435 -250.57951407 404.58106542 -249.1875 408.1875 C-248.9080957 408.92661621 -248.62869141 409.66573242 -248.34082031 410.42724609 C-244.26116837 421.17878164 -239.74126582 431.42629568 -234.16796875 441.48828125 C-232.25438152 444.96577862 -230.69313526 448.51602979 -229.1875 452.1875 C-228.5275 452.1875 -227.8675 452.1875 -227.1875 452.1875 C-226.76984375 453.30318359 -226.76984375 453.30318359 -226.34375 454.44140625 C-224.52908463 458.7512365 -221.85376118 462.36199482 -219.1875 466.1875 C-218.45144531 467.25613281 -217.71539062 468.32476562 -216.95703125 469.42578125 C-211.15453826 477.76223715 -204.88876356 485.55992242 -198.1875 493.1875 C-197.42566406 494.06148438 -196.66382813 494.93546875 -195.87890625 495.8359375 C-184.57423896 508.61162211 -172.34397032 520.58287937 -158.1875 530.1875 C-157.5275 530.1875 -156.8675 530.1875 -156.1875 530.1875 C-156.1875 530.8475 -156.1875 531.5075 -156.1875 532.1875 C-153.08201584 534.81521737 -149.58308719 536.95529196 -146.1875 539.1875 C-145.59807617 539.57534668 -145.00865234 539.96319336 -144.40136719 540.36279297 C-122.19713362 555.74018507 -122.19713362 555.74018507 -97.1875 563.1875 C-97.1875 563.8475 -97.1875 564.5075 -97.1875 565.1875 C-95.6063708 565.69442692 -94.02248617 566.19276443 -92.4375 566.6875 C-91.55578125 566.9659375 -90.6740625 567.244375 -89.765625 567.53125 C-86.98482471 568.35195285 -86.98482471 568.35195285 -83.1875 568.1875 C-83.1875 568.8475 -83.1875 569.5075 -83.1875 570.1875 C-81.46068563 570.69556447 -79.73092021 571.19360467 -78 571.6875 C-77.03707031 571.9659375 -76.07414063 572.244375 -75.08203125 572.53125 C-72.33404124 573.15427608 -69.99151584 573.31052812 -67.1875 573.1875 C-67.1875 573.8475 -67.1875 574.5075 -67.1875 575.1875 C-65.99374756 575.39898682 -65.99374756 575.39898682 -64.77587891 575.61474609 C-61.12121851 576.26287105 -57.46685832 576.91267405 -53.8125 577.5625 C-52.56082031 577.78421875 -51.30914063 578.0059375 -50.01953125 578.234375 C-48.17294922 578.56308594 -48.17294922 578.56308594 -46.2890625 578.8984375 C-45.06606445 579.1159668 -43.84306641 579.33349609 -42.58300781 579.55761719 C-39.75539099 580.08215353 -36.95608288 580.66961065 -34.1484375 581.2890625 C-21.84780748 583.75647144 -9.05887056 583.38890786 3.4375 583.375 C4.27267151 583.37506042 5.10784302 583.37512085 5.96832275 583.37518311 C27.55158142 583.36326124 27.55158142 583.36326124 48.75048828 579.69580078 C52.40226633 578.79561112 56.10618783 578.19199496 59.8125 577.5625 C60.58722656 577.4284375 61.36195313 577.294375 62.16015625 577.15625 C64.04381407 576.83067951 65.92809298 576.50870574 67.8125 576.1875 C67.8125 575.5275 67.8125 574.8675 67.8125 574.1875 C69.66875 574.0328125 69.66875 574.0328125 71.5625 573.875 C77.45612532 573.23581894 83.09868214 571.72472003 88.8125 570.1875 C88.8125 569.5275 88.8125 568.8675 88.8125 568.1875 C90.25882813 568.04634766 90.25882813 568.04634766 91.734375 567.90234375 C96.45269775 567.21967769 100.66564206 565.54108887 105.0625 563.75 C105.93221436 563.39800537 106.80192871 563.04601074 107.69799805 562.68334961 C117.07058959 558.79876283 125.97144027 554.14828368 134.8125 549.1875 C135.46524902 548.82575684 136.11799805 548.46401367 136.79052734 548.09130859 C152.03679747 539.57798168 165.98202004 528.92161058 179.1484375 517.4921875 C180.94044633 515.94191593 182.78152087 514.44679638 184.6640625 513.0078125 C185.72753906 512.10675781 185.72753906 512.10675781 186.8125 511.1875 C186.8125 510.5275 186.8125 509.8675 186.8125 509.1875 C187.69083496 508.80271484 187.69083496 508.80271484 188.58691406 508.41015625 C191.01851728 507.07432157 192.5274945 505.64485643 194.421875 503.625 C195.09025391 502.91553223 195.75863281 502.20606445 196.44726562 501.47509766 C197.14529297 500.72019043 197.84332031 499.9652832 198.5625 499.1875 C199.28115234 498.41583496 199.99980469 497.64416992 200.74023438 496.84912109 C205.69649923 491.48883737 210.45631164 486.05159972 214.8125 480.1875 C215.48539063 479.28644531 216.15828125 478.38539063 216.8515625 477.45703125 C218.86753611 474.71998842 220.84958885 471.96279245 222.8125 469.1875 C223.30234375 468.49527344 223.7921875 467.80304688 224.296875 467.08984375 C227.79558637 461.98919431 230.96235168 456.68784643 234.125 451.375 C234.57020996 450.6329834 235.01541992 449.8909668 235.47412109 449.12646484 C236.09988037 448.06419678 236.09988037 448.06419678 236.73828125 446.98046875 C237.11380127 446.3464917 237.48932129 445.71251465 237.8762207 445.05932617 C238.84741705 443.11769321 239.36733224 441.30652203 239.8125 439.1875 C240.4725 439.1875 241.1325 439.1875 241.8125 439.1875 C242.05484375 438.57003906 242.2971875 437.95257813 242.546875 437.31640625 C244.20980204 433.11431753 245.89689095 428.93472216 247.75 424.8125 C251.88942928 415.5634627 255.57000727 406.28601443 258.6875 396.6484375 C259.56302267 393.95498928 260.48584669 391.29161189 261.4375 388.625 C264.63195605 378.98748853 266.11239923 368.89619118 267.3828125 358.85546875 C267.8125 356.1875 267.8125 356.1875 268.8125 355.1875 C273.68165429 324.65754719 273.36326783 288.74412788 265.49682617 258.82080078 C264.73229083 255.87885351 264.13742498 252.93321528 263.625 249.9375 C263.38716797 248.56851563 263.38716797 248.56851563 263.14453125 247.171875 C263.03496094 246.51703125 262.92539062 245.8621875 262.8125 245.1875 C262.1525 245.1875 261.4925 245.1875 260.8125 245.1875 C260.76351562 244.61902344 260.71453125 244.05054688 260.6640625 243.46484375 C260.18106919 238.47668871 259.33611837 233.96150422 257.8125 229.1875 C257.1525 229.1875 256.4925 229.1875 255.8125 229.1875 C255.6578125 227.764375 255.6578125 227.764375 255.5 226.3125 C254.8214081 221.45258446 253.3039524 216.84946126 251.8125 212.1875 C251.1525 212.1875 250.4925 212.1875 249.8125 212.1875 C249.68875 211.2284375 249.68875 211.2284375 249.5625 210.25 C245.95393597 195.5150302 236.40401055 180.51212012 227.8125 168.1875 C227.39726074 167.58131836 226.98202148 166.97513672 226.55419922 166.35058594 C219.80181972 156.49601607 212.80031727 147.07450379 204.8125 138.1875 C204.27898926 137.59227539 203.74547852 136.99705078 203.19580078 136.38378906 C189.17915085 120.84209526 174.15685243 106.96384202 156.8125 95.1875 C155.68521484 94.41599609 155.68521484 94.41599609 154.53515625 93.62890625 C140.80303581 84.33740121 126.1392875 75.56836174 110.8125 69.1875 C109.08966797 68.46626953 109.08966797 68.46626953 107.33203125 67.73046875 C98.6153542 64.13822433 89.78047667 61.09003869 80.8125 58.1875 C80.12776611 57.94378662 79.44303223 57.70007324 78.73754883 57.44897461 C72.98123723 55.42507758 67.25315406 54.18131169 61.25 53.125 C51.13723879 51.30951511 51.13723879 51.30951511 46.80859375 50.13671875 C12.12302062 41.2118523 -34.69927447 45.0458129 -68.09155273 56.50268555 Z " fill="#020202" transform="translate(597.1875,-0.1875)"/>
<path d="M0 0 C1.05630615 -0.00515625 2.1126123 -0.0103125 3.20092773 -0.015625 C11.68408745 0.05864326 19.76782191 0.93193262 27.625 4.3125 C28.40488281 4.6425 29.18476562 4.9725 29.98828125 5.3125 C30.75527344 5.6425 31.52226563 5.9725 32.3125 6.3125 C33.9775558 6.98317982 35.64380425 7.65092859 37.3125 8.3125 C37.3125 8.9725 37.3125 9.6325 37.3125 10.3125 C38.0446875 10.57289062 38.776875 10.83328125 39.53125 11.1015625 C42.37318812 12.3389232 44.40670236 13.74761388 46.8125 15.6875 C47.5446875 16.27273437 48.276875 16.85796875 49.03125 17.4609375 C49.7840625 18.07195312 50.536875 18.68296875 51.3125 19.3125 C52.14265625 19.93382813 52.9728125 20.55515625 53.828125 21.1953125 C56.54847461 23.51359786 58.47666677 25.91462482 60.5625 28.8125 C61.24828125 29.7509375 61.9340625 30.689375 62.640625 31.65625 C64.11294657 33.9954525 64.88039981 35.61822823 65.3125 38.3125 C65.9725 38.3125 66.6325 38.3125 67.3125 38.3125 C68.15411854 40.39250011 68.98550763 42.47664146 69.8125 44.5625 C70.2765625 45.72265625 70.740625 46.8828125 71.21875 48.078125 C72.3125 51.3125 72.3125 51.3125 72.3125 55.3125 C72.9725 55.3125 73.6325 55.3125 74.3125 55.3125 C76.98107155 65.77150505 76.60187898 76.35301424 76.5871582 87.05957031 C76.59151095 89.15505657 76.59669597 91.25054123 76.60264587 93.34602356 C76.61598786 99.01357202 76.6166198 104.6810536 76.61408257 110.34861469 C76.6130094 115.09224979 76.61790518 119.83587155 76.622688 124.57950377 C76.63376702 135.77843593 76.6342299 146.97733455 76.62817383 158.17626953 C76.62213755 169.7000196 76.63444004 181.22364746 76.6557439 192.74737668 C76.67340295 202.66707929 76.6793544 212.58674317 76.67610615 222.50646091 C76.6742997 228.41955564 76.67686538 234.33256322 76.69082069 240.24564362 C76.70346427 245.81076029 76.70139351 251.3756876 76.68840981 256.94080162 C76.68605848 258.97278344 76.68872633 261.00477887 76.69703293 263.03674507 C76.75077248 277.21491257 76.19818286 290.19219152 70.3125 303.3125 C69.97605469 304.19421875 69.63960937 305.0759375 69.29296875 305.984375 C68.27891147 308.39225604 67.08691772 310.39966283 65.625 312.5625 C64.84382813 313.72072266 64.84382813 313.72072266 64.046875 314.90234375 C61.70308036 318.15937369 59.14731487 321.22478585 56.53515625 324.26953125 C55.12265466 326.2008544 55.12265466 326.2008544 55.41015625 328.30078125 C56.52101959 330.77738133 57.95220744 332.60075579 59.6875 334.6875 C66.3125 342.95854723 66.3125 342.95854723 66.3125 348.3125 C66.9725 348.3125 67.6325 348.3125 68.3125 348.3125 C68.821283 349.87216218 69.31913469 351.43539241 69.8125 353 C70.23015625 354.30517578 70.23015625 354.30517578 70.65625 355.63671875 C71.31100805 358.30641677 71.43081495 360.57646684 71.3125 363.3125 C71.9725 363.3125 72.6325 363.3125 73.3125 363.3125 C74.24154054 389.35993809 71.21541885 408.80206589 53.1484375 428.6953125 C48.69840067 433.328856 44.16142127 437.52128817 38.3125 440.3125 C37.6525 440.3125 36.9925 440.3125 36.3125 440.3125 C36.3125 440.9725 36.3125 441.6325 36.3125 442.3125 C29.6875 445.3125 29.6875 445.3125 26.3125 445.3125 C26.3125 445.9725 26.3125 446.6325 26.3125 447.3125 C4.76413897 453.03149629 -15.42574382 451.4015502 -35.6875 442.3125 C-35.6875 441.6525 -35.6875 440.9925 -35.6875 440.3125 C-36.57695313 440.06628906 -37.46640625 439.82007813 -38.3828125 439.56640625 C-50.22850947 435.07176237 -60.76392454 420.75697136 -65.99609375 409.49609375 C-67.30625171 406.45201754 -68.55180493 403.42650261 -69.6875 400.3125 C-70.08243652 399.24986938 -70.08243652 399.24986938 -70.48535156 398.16577148 C-72.87222401 391.13957574 -73.22494766 384.50895023 -73.1875 377.125 C-73.18685547 375.94059326 -73.18621094 374.75618652 -73.18554688 373.53588867 C-73.02894199 364.30946127 -71.61197172 356.68003434 -67.6875 348.3125 C-67.0275 348.3125 -66.3675 348.3125 -65.6875 348.3125 C-65.58050781 347.59191406 -65.47351563 346.87132812 -65.36328125 346.12890625 C-64.62821925 343.06543976 -63.51284273 340.93274492 -61.875 338.25 C-61.12283203 336.99509766 -61.12283203 336.99509766 -60.35546875 335.71484375 C-58.6875 333.3125 -58.6875 333.3125 -56.42578125 331.25390625 C-54.48266974 329.51299516 -54.48266974 329.51299516 -54.66796875 327.4296875 C-56.09796683 324.46011294 -57.97809449 322.03851101 -60 319.4375 C-68.77443971 308.09599281 -68.77443971 308.09599281 -70.25 302.5 C-71.15052622 299.20791236 -72.13852749 296.01682111 -73.3125 292.8125 C-75.86581346 285.19659737 -75.83685827 277.09930409 -75.82121277 269.13563538 C-75.82347833 268.26913925 -75.82574388 267.40264313 -75.82807809 266.50988954 C-75.83435506 263.63686878 -75.83359283 260.76389596 -75.83276367 257.89086914 C-75.83575903 255.81859782 -75.83916243 253.74632705 -75.84294128 251.67405701 C-75.85174539 246.06664841 -75.85411784 240.4592551 -75.85475707 234.85184026 C-75.85546942 231.34438053 -75.85760719 227.83692464 -75.86025429 224.32946587 C-75.86949462 212.08170196 -75.87359067 199.83394892 -75.87280273 187.58618164 C-75.87220174 176.18680093 -75.88276117 164.78746752 -75.8985464 153.38809878 C-75.91163673 143.58398246 -75.91698603 133.77988157 -75.91634732 123.97575659 C-75.91609285 118.12762533 -75.91891631 112.27953616 -75.92952538 106.43141365 C-75.93923191 100.93120161 -75.93926801 95.4310717 -75.93200874 89.9308567 C-75.9309662 87.91815826 -75.93330607 85.90545463 -75.9393692 83.89276505 C-75.99435692 64.36737384 -75.99435692 64.36737384 -73.6875 55.3125 C-73.0275 55.3125 -72.3675 55.3125 -71.6875 55.3125 C-71.605 54.36375 -71.5225 53.415 -71.4375 52.4375 C-70.74758234 47.42272533 -68.68412356 42.92795074 -66.6875 38.3125 C-66.0275 38.3125 -65.3675 38.3125 -64.6875 38.3125 C-64.60242188 37.59578125 -64.51734375 36.8790625 -64.4296875 36.140625 C-61.6940169 25.7162802 -49.62398069 17.15577074 -40.984375 11.5625 C-38.6875 10.3125 -38.6875 10.3125 -36.6875 10.3125 C-36.6875 9.6525 -36.6875 8.9925 -36.6875 8.3125 C-35.23043274 7.80882243 -33.77179904 7.30967444 -32.3125 6.8125 C-31.50039063 6.5340625 -30.68828125 6.255625 -29.8515625 5.96875 C-27.6875 5.3125 -27.6875 5.3125 -25.6875 5.3125 C-25.6875 4.6525 -25.6875 3.9925 -25.6875 3.3125 C-17.13059046 0.45452624 -8.95493414 0.01053599 0 0 Z " fill="#020202" transform="translate(599.6875,89.6875)"/>
<path d="M0 0 C8.06926817 5.98470723 12.70822059 10.45327726 14.39482784 20.4813776 C14.91608189 24.72508685 15.01109198 28.8225903 14.99525452 33.09092712 C14.99610894 33.94220344 14.99696337 34.79347975 14.99784368 35.67055231 C14.99948457 38.50947523 14.99399997 41.34833843 14.98852539 44.18725586 C14.98824319 46.22767129 14.98840189 48.26808682 14.9889679 50.3085022 C14.9892546 55.83891195 14.98337838 61.36929998 14.97639394 66.89970469 C14.97013926 72.68261146 14.96955493 78.46551872 14.96836853 84.24842834 C14.96526146 95.19527552 14.95705646 106.14211269 14.94701904 117.08895546 C14.93583855 129.55320821 14.93034257 142.01746143 14.92532361 154.48171794 C14.91487334 180.11802584 14.89728596 205.75432486 14.875 231.390625 C14.215 231.390625 13.555 231.390625 12.875 231.390625 C12.813125 232.23625 12.75125 233.081875 12.6875 233.953125 C10.92898482 241.3929969 6.34717993 245.1508578 0.05859375 249.12890625 C-0.66199219 249.54527344 -1.38257813 249.96164062 -2.125 250.390625 C-3.01832031 250.95330078 -3.01832031 250.95330078 -3.9296875 251.52734375 C-10.27354736 254.02199327 -18.96686186 253.38893069 -25.375 251.36328125 C-31.83261263 248.12550603 -36.56343139 243.69359027 -40.125 237.390625 C-41.0625 233.828125 -41.0625 233.828125 -41.125 231.390625 C-41.785 231.390625 -42.445 231.390625 -43.125 231.390625 C-43.1717568 204.59116324 -43.2070069 177.79170761 -43.22862434 150.99221325 C-43.23892926 138.54826174 -43.25297462 126.10433561 -43.27587891 113.66040039 C-43.29583677 102.81207347 -43.30872214 91.96376493 -43.31317699 81.11542016 C-43.3157803 75.37332751 -43.32188294 69.63128743 -43.33646011 63.88921165 C-43.35008185 58.47942438 -43.35421336 53.0697111 -43.35121536 47.65990829 C-43.35176347 45.6794666 -43.35571344 43.69902231 -43.36341095 41.7185955 C-43.46239568 14.92698743 -43.46239568 14.92698743 -37.125 7.390625 C-36.64160156 6.79378906 -36.15820312 6.19695312 -35.66015625 5.58203125 C-27.49837822 -3.65518106 -10.7463598 -6.57751333 0 0 Z " fill="#FCFCFC" transform="translate(614.125,139.609375)"/>
<path d="M0 0 C5.28 0 10.56 0 16 0 C16 0.66 16 1.32 16 2 C17.0209375 2.0928125 17.0209375 2.0928125 18.0625 2.1875 C24.43099453 3.94899849 28.02028231 7.465116 31.4375 12.9375 C35.21413414 20.36991599 35.36096942 28.48921122 32.96875 36.41796875 C32.6490625 37.27003906 32.329375 38.12210937 32 39 C31.34 39 30.68 39 30 39 C29.79375 39.721875 29.5875 40.44375 29.375 41.1875 C26.93678295 46.17476214 23.22722757 48.37562106 18.4375 50.8125 C11.39362729 53.16045757 3.14655127 53.18719408 -3.8125 50.5625 C-9.75570257 47.48124553 -14.59374518 42.30243067 -17.2109375 36.15625 C-18.09566272 32.61734914 -18.23079457 29.51961596 -18.1875 25.875 C-18.18105469 24.67617188 -18.17460938 23.47734375 -18.16796875 22.2421875 C-18.03261095 19.62946722 -17.77128695 17.48045882 -17 15 C-16.34 15 -15.68 15 -15 15 C-14.773125 14.278125 -14.54625 13.55625 -14.3125 12.8125 C-11.9427214 7.73440301 -7.96049294 4.48024647 -3 2 C-2.01 2 -1.02 2 0 2 C0 1.34 0 0.68 0 0 Z " fill="#FAFAFA" transform="translate(592,441)"/>
<path d="M0 0 C1.16660156 0.00322266 2.33320312 0.00644531 3.53515625 0.00976562 C4.75847656 0.01814453 5.98179687 0.02652344 7.2421875 0.03515625 C8.47324219 0.03966797 9.70429687 0.04417969 10.97265625 0.04882812 C14.02088142 0.06064295 17.06901064 0.07711597 20.1171875 0.09765625 C20.1171875 0.42765625 20.1171875 0.75765625 20.1171875 1.09765625 C18.83521484 1.18853516 18.83521484 1.18853516 17.52734375 1.28125 C15.87025391 1.40693359 15.87025391 1.40693359 14.1796875 1.53515625 C13.07753906 1.61636719 11.97539063 1.69757812 10.83984375 1.78125 C8.20608847 1.80183709 8.20608847 1.80183709 7.1171875 3.09765625 C4.42482974 3.33444341 1.75220594 3.5196365 -0.9453125 3.66015625 C-2.08323242 3.72493164 -2.08323242 3.72493164 -3.24414062 3.79101562 C-5.12346688 3.89739258 -7.00311494 3.99805559 -8.8828125 4.09765625 C-8.5528125 3.10765625 -8.2228125 2.11765625 -7.8828125 1.09765625 C-5.16879956 -0.25935022 -3.03434934 -0.01472985 0 0 Z " fill="#D8D8D8" transform="translate(557.8828125,-0.09765625)"/>
<path d="M0 0 C4.21749219 -0.07419134 8.43463811 -0.1286204 12.65258789 -0.16479492 C14.08722552 -0.17987589 15.52181708 -0.2003438 16.95629883 -0.22631836 C19.01915859 -0.26273437 21.08140858 -0.27973243 23.14453125 -0.29296875 C25.00621948 -0.31653442 25.00621948 -0.31653442 26.90551758 -0.34057617 C30 -0 30 -0 31.9284668 1.51831055 C32.45887573 2.25174683 32.45887573 2.25174683 33 3 C29.41788817 4.19403728 27.52121888 3.74809891 23.8125 3.125 C15.89089497 1.8999242 8.00052275 1.39483099 0 1 C0 0.67 0 0.34 0 0 Z " fill="#EAEAEA" transform="translate(618,0)"/>
<path d="M0 0 C1.60080151 4.00200378 0.29279692 7.04556236 -1 11 C-2.66666667 11 -4.33333333 11 -6 11 C-7.63676257 12.9600281 -7.63676257 12.9600281 -9 15 C-9.66 14.34 -10.32 13.68 -11 13 C-10.31164062 12.34644531 -10.31164062 12.34644531 -9.609375 11.6796875 C-5.83645414 8.0177349 -2.7376848 4.48980308 0 0 Z " fill="#F1F1F1" transform="translate(661,507)"/>
<path d="M0 0 C0.66 0.99 1.32 1.98 2 3 C1.195625 3.61875 0.39125 4.2375 -0.4375 4.875 C-3.03874519 6.74164041 -3.03874519 6.74164041 -4 9 C-4.66 9 -5.32 9 -6 9 C-5.67 9.99 -5.34 10.98 -5 12 C-5.7425 12.4125 -6.485 12.825 -7.25 13.25 C-9.90171685 14.93745618 -11.86674014 16.70872089 -14 19 C-14.66 18.67 -15.32 18.34 -16 18 C-15.62190186 17.5968457 -15.24380371 17.19369141 -14.85424805 16.77832031 C-13.12995293 14.9374509 -11.40870626 13.09375761 -9.6875 11.25 C-9.09259766 10.61578125 -8.49769531 9.9815625 -7.88476562 9.328125 C-5.08572094 6.32579774 -2.35829368 3.37142346 0 0 Z " fill="#242424" transform="translate(370,99)"/>
<path d="M0 0 C0.66 0.99 1.32 1.98 2 3 C1.34 3 0.68 3 0 3 C0 3.66 0 4.32 0 5 C-1.28965176 6.37562854 -2.62689293 7.70766393 -4 9 C-4.66 9.66 -5.32 10.32 -6 11 C-6.66 10.34 -7.32 9.68 -8 9 C-7.50628906 8.51789062 -7.01257813 8.03578125 -6.50390625 7.5390625 C-5.86324219 6.90742187 -5.22257813 6.27578125 -4.5625 5.625 C-3.92441406 4.99851562 -3.28632812 4.37203125 -2.62890625 3.7265625 C-0.92117824 2.08276939 -0.92117824 2.08276939 0 0 Z " fill="#DEDEDE" transform="translate(658,511)"/>
<path d="M0 0 C0 3 0 3 -1.75 5.125 C-3.95974524 6.96645436 -5.20090866 7.60012981 -8 8 C-5.58443874 4.80800833 -3.31996462 2.25283313 0 0 Z " fill="#DBDBDB" transform="translate(817,543)"/>
<path d="M0 0 C0.66 0.33 1.32 0.66 2 1 C0.02 3.31 -1.96 5.62 -4 8 C-5.32 7.67 -6.64 7.34 -8 7 C-5.36 4.69 -2.72 2.38 0 0 Z " fill="#343434" transform="translate(773,519)"/>
<path d="M0 0 C0.33 0.66 0.66 1.32 1 2 C1.66 2.33 2.32 2.66 3 3 C-1.75 7.875 -1.75 7.875 -4 9 C-2.80100302 5.9168649 -1.52299523 2.93720508 0 0 Z " fill="#383838" transform="translate(837,439)"/>
<path d="M0 0 C0.66 0.99 1.32 1.98 2 3 C0.824375 3.928125 0.824375 3.928125 -0.375 4.875 C-2.96837647 6.89858661 -2.96837647 6.89858661 -5 9 C-5 4.61031544 -2.87194899 3.23094261 0 0 Z " fill="#1C1C1C" transform="translate(370,99)"/>
<path d="M0 0 C0.99 0.33 1.98 0.66 3 1 C2.01 2.485 2.01 2.485 1 4 C-1.31 3.67 -3.62 3.34 -6 3 C-4 2 -2 1 0 0 Z " fill="#D8D8D8" transform="translate(714,608)"/>
<path d="M0 0 C0.66 0.33 1.32 0.66 2 1 C-0.25740623 3.33524782 -2.2805761 5.18705073 -5 7 C-5.33 6.01 -5.66 5.02 -6 4 C-4.02 2.68 -2.04 1.36 0 0 Z " fill="#191919" transform="translate(751,536)"/>
</svg>
