<svg version="1.1" id="Layer_1" xmlns="http://www.w3.org/2000/svg" xmlns:xlink="http://www.w3.org/1999/xlink" x="0px" y="0px"
	 width="100%" viewBox="0 0 1024 528" enable-background="new 0 0 1024 528" xml:space="preserve">
<path fill="#000000" opacity="1.000000" stroke="none" 
	d="
M617.468628,529.000000 
	C598.793396,510.689026 580.589966,492.374878 562.378052,474.069244 
	C557.676941,469.343994 552.817749,464.767365 548.283997,459.887634 
	C545.677063,457.081757 542.810730,456.112701 539.031128,456.124664 
	C504.535736,456.233917 470.039886,456.171173 435.544159,456.186829 
	C403.017731,456.201569 372.014038,449.688171 343.227051,434.194702 
	C308.319885,415.407318 281.789673,388.287354 263.779114,352.954437 
	C248.854095,323.674683 242.299530,292.457489 243.855637,259.731171 
	C245.211029,231.225739 252.810211,204.279373 266.753174,179.264618 
	C270.253693,172.984390 276.219299,171.124680 281.970856,174.182739 
	C287.450897,177.096436 289.395874,182.956039 286.184235,189.157379 
	C277.694855,205.549377 271.339447,222.686249 268.313843,240.883881 
	C262.668427,274.838745 266.699860,307.687073 281.554352,338.831238 
	C302.474701,382.693115 336.649597,411.658997 382.663666,426.689880 
	C399.083466,432.053528 416.134003,433.816132 433.383087,433.799622 
	C470.045166,433.764526 506.707794,433.878540 543.369019,433.698242 
	C550.148499,433.664917 555.438843,435.590790 560.268921,440.509430 
	C578.832153,459.413055 597.681885,478.035339 616.430359,496.756958 
	C617.474731,497.799835 618.569336,498.792358 620.598816,500.717133 
	C620.598816,497.015808 620.598816,494.317719 620.598816,491.619598 
	C620.599060,475.954895 620.590393,460.290222 620.603027,444.625519 
	C620.610840,434.932007 622.944214,431.850067 632.332153,429.591522 
	C662.876282,422.243317 689.533936,407.777924 711.627441,385.441711 
	C738.005310,358.774048 754.216553,326.801880 758.725464,289.451294 
	C764.338257,242.956650 752.395386,201.005310 722.760803,164.837952 
	C696.204163,132.427155 661.725952,112.837029 620.098145,106.317627 
	C608.376038,104.481796 596.573792,104.090927 584.739624,104.290276 
	C582.024902,104.336006 579.382690,104.090118 576.989807,102.768799 
	C572.781006,100.444672 570.755371,96.745163 571.233704,92.012901 
	C571.714172,87.259697 574.394348,83.980927 579.122925,82.791939 
	C581.201843,82.269196 583.400452,82.056221 585.551270,82.009972 
	C626.619629,81.126816 664.892395,90.625580 699.153809,113.764565 
	C731.205444,135.411087 754.615112,164.248260 769.073608,200.264694 
	C777.226868,220.574585 781.633240,241.671173 782.216675,263.473206 
	C783.425598,308.652679 769.938232,349.177124 742.097839,384.708649 
	C718.200378,415.207855 687.482422,436.100983 650.450684,447.608307 
	C642.872009,449.963318 642.951233,449.866760 642.879333,457.946259 
	C642.687988,479.437714 643.402954,500.934662 642.482788,522.422485 
	C642.397949,524.403564 642.673645,526.399963 642.890991,528.694641 
	C634.645752,529.000000 626.291504,529.000000 617.468628,529.000000 
z"/>
<path fill="#000000" opacity="1.000000" stroke="none" 
	d="
M377.536804,1.000000 
	C383.757324,4.227950 385.592560,9.258458 385.375122,15.655123 
	C385.086792,24.136719 385.364136,32.636028 385.281189,41.126583 
	C385.208099,48.611591 381.962952,52.472492 374.679138,54.048218 
	C362.475250,56.688324 358.388184,61.247929 356.497375,74.586609 
	C360.917114,76.307472 365.585297,75.514801 370.131592,75.561234 
	C385.203033,75.715179 391.354828,81.802116 391.348022,96.813965 
	C391.341309,111.632179 391.392792,126.450684 391.316162,141.268524 
	C391.252563,153.569199 384.441956,160.333466 372.079224,160.374802 
	C354.430756,160.433823 336.781738,160.436218 319.133331,160.363297 
	C307.381653,160.314728 300.101562,153.200089 300.102905,141.365051 
	C300.105377,120.061409 299.349518,98.735374 300.789612,77.460518 
	C301.725830,63.629639 304.388519,50.121655 310.779633,37.581371 
	C321.577118,16.395010 339.587128,5.644749 362.355957,1.700434 
	C363.009766,1.587177 363.659210,1.449033 364.655334,1.161246 
	C369.024536,1.000000 373.049103,1.000000 377.536804,1.000000 
M324.665527,65.149086 
	C324.225677,67.940865 323.635345,70.718430 323.370117,73.526703 
	C321.487396,93.459877 322.700439,113.450012 322.296631,133.410980 
	C322.224365,136.983261 323.705963,138.049377 327.027222,138.023880 
	C339.346375,137.929230 351.667358,137.913773 363.986115,138.032379 
	C367.598267,138.067154 369.037598,136.764053 368.978516,133.064209 
	C368.819031,123.077690 368.795441,113.084221 368.995605,103.099075 
	C369.076141,99.080498 367.403595,97.904068 363.653442,97.932869 
	C357.003387,97.983948 350.325348,97.982040 343.705994,97.434250 
	C337.058136,96.884109 333.162994,92.619774 332.937805,85.932724 
	C332.804321,81.969620 333.270325,77.957092 333.777679,74.006721 
	C335.899506,57.486263 342.253021,43.614559 358.121277,35.824783 
	C363.593414,33.138496 364.346802,30.770636 361.562500,24.389948 
	C356.280487,25.610643 351.167694,27.418486 346.513885,30.377781 
	C334.026886,38.318115 327.814117,50.286572 324.665527,65.149086 
z"/>
<path fill="#000000" opacity="1.000000" stroke="none" 
	d="
M485.535339,1.000000 
	C491.212158,4.539701 492.747986,9.488190 492.504303,15.657572 
	C492.182892,23.794294 492.615082,31.959690 492.680573,40.113102 
	C492.747070,48.393700 489.399414,52.580029 481.533691,54.155540 
	C469.805817,56.504646 464.853760,62.293556 463.887665,75.621666 
	C468.811096,75.621666 473.707306,75.596855 478.603210,75.626434 
	C492.010681,75.707451 498.850983,82.428566 498.959015,95.941406 
	C499.078827,110.926056 499.071014,125.913223 498.946442,140.897873 
	C498.841187,153.556625 491.448395,160.542496 478.846436,160.466507 
	C461.530273,160.362076 444.213074,160.440643 426.896545,160.374374 
	C414.605469,160.327347 407.703644,153.454147 407.689850,141.234711 
	C407.667664,121.586983 407.310028,101.927277 407.872681,82.294945 
	C408.367065,65.045197 411.486053,48.256706 420.658997,33.122395 
	C430.767334,16.444738 445.831757,7.012938 464.494385,2.731197 
	C466.759979,2.211402 469.048401,1.791036 471.663116,1.162294 
	C476.356903,1.000000 480.713806,1.000000 485.535339,1.000000 
M447.140137,35.630402 
	C435.254669,46.532089 431.362030,61.047688 430.554932,76.164185 
	C429.553284,94.924385 430.182892,113.768608 429.926758,132.574066 
	C429.870026,136.736343 431.459198,138.096527 435.507507,138.040298 
	C447.489563,137.873856 459.476990,137.892822 471.459229,138.059586 
	C475.261444,138.112503 476.825684,136.955093 476.735535,132.931213 
	C476.515656,123.115608 476.465271,113.285393 476.763855,103.473763 
	C476.902893,98.906273 475.069916,97.809265 470.897766,97.855759 
	C463.922485,97.933479 456.901398,98.510620 449.964447,97.337662 
	C444.100800,96.346191 439.963898,91.699242 440.236786,85.860588 
	C440.593109,78.238541 441.076141,70.613220 443.354645,63.201256 
	C447.098511,51.022484 453.905060,41.444386 465.576569,35.738052 
	C471.290222,32.944572 471.834137,31.503073 469.547607,24.413435 
	C461.252136,25.944105 453.872284,29.302301 447.140137,35.630402 
z"/>
<path fill="#000000" opacity="1.000000" stroke="none" 
	d="
M621.000122,242.667664 
	C628.164062,242.672836 634.830078,242.577103 641.491394,242.711868 
	C648.262268,242.848801 652.964050,247.197845 653.197571,253.258774 
	C653.413208,258.854431 649.039001,263.636078 642.656860,264.548248 
	C640.362000,264.876251 638.007263,264.873169 635.679871,264.873718 
	C554.212708,264.892639 472.745514,264.900726 391.278351,264.871918 
	C388.126495,264.870789 384.919678,264.789856 381.835175,264.221375 
	C376.472351,263.232971 372.620148,258.273376 372.827759,253.199188 
	C373.049988,247.768600 377.367493,243.338333 383.099030,242.754883 
	C384.584930,242.603622 386.094971,242.668625 387.593903,242.668579 
	C465.229279,242.666016 542.864685,242.667130 621.000122,242.667664 
z"/>
<path fill="#000000" opacity="1.000000" stroke="none" 
	d="
M633.927307,209.013000 
	C552.471436,209.014343 471.504578,209.011795 390.537689,209.025879 
	C387.196777,209.026459 383.860016,209.042404 380.637115,208.038345 
	C375.884430,206.557693 372.567657,201.835571 372.831787,197.044052 
	C373.084991,192.451385 376.643524,188.182739 381.348724,187.163071 
	C383.277344,186.745102 385.314087,186.698853 387.301697,186.698441 
	C471.100739,186.681107 554.899780,186.686005 638.698853,186.706055 
	C640.523865,186.706497 642.382996,186.731094 644.167358,187.061859 
	C649.107483,187.977585 652.902161,192.282608 653.186096,197.060226 
	C653.462097,201.706757 650.012878,206.562729 645.318237,208.047195 
	C641.763062,209.171326 638.080322,209.026382 633.927307,209.013000 
z"/>
<path fill="#000000" opacity="1.000000" stroke="none" 
	d="
M620.999878,320.388733 
	C543.222717,320.386322 465.945526,320.384827 388.668335,320.374054 
	C386.504974,320.373749 384.316345,320.465027 382.183350,320.182526 
	C377.240173,319.527863 373.362671,315.369080 372.873749,310.466400 
	C372.423584,305.952240 375.474426,301.284882 379.955414,299.488281 
	C382.682098,298.395050 385.518951,298.595581 388.339630,298.595184 
	C466.282990,298.583710 544.226379,298.588318 622.169739,298.561310 
	C626.661438,298.559753 631.153381,298.323608 635.644592,298.178131 
	C638.983276,298.070038 642.312988,298.011139 645.512573,299.211151 
	C650.592590,301.116455 653.759277,305.934662 653.141846,310.816559 
	C652.502014,315.875641 647.970154,320.114532 642.482605,320.283020 
	C635.493896,320.497559 628.494629,320.369049 620.999878,320.388733 
z"/>
<path fill="#000000" opacity="1.000000" stroke="none" 
	d="
M626.995972,376.912781 
	C588.528931,376.906616 550.560913,376.917877 512.592957,376.865356 
	C509.275848,376.860779 505.916901,376.692535 502.652222,376.150024 
	C497.295105,375.259857 493.831543,371.008942 493.693878,365.705627 
	C493.556030,360.398132 496.772858,356.096161 502.157623,354.888855 
	C504.729797,354.312134 507.433350,354.103821 510.077911,354.100250 
	C552.375549,354.043335 594.673279,354.036591 636.970947,354.062927 
	C639.285828,354.064362 641.644836,354.240173 643.906494,354.707031 
	C649.654236,355.893341 653.218262,360.123108 653.239075,365.455963 
	C653.259155,370.606842 649.457886,375.069794 643.929504,376.282379 
	C638.495178,377.474396 632.973511,376.697845 626.995972,376.912781 
z"/>
<path fill="#000000" opacity="1.000000" stroke="none" 
	d="
M455.818848,368.284424 
	C452.713379,375.256775 447.328339,377.902405 441.408966,375.702545 
	C436.173737,373.756897 433.196960,367.733429 434.814575,362.358887 
	C436.519165,356.695404 442.235413,353.482727 448.128448,354.876099 
	C453.674561,356.187469 456.665314,361.178131 455.818848,368.284424 
z"/>
<path fill="#000000" opacity="1.000000" stroke="none" 
	d="
M539.077148,82.800720 
	C544.358887,84.695526 547.172241,88.326561 547.057434,93.449669 
	C546.958618,97.858223 544.503845,101.258446 540.301819,103.144905 
	C535.973694,105.088005 532.070984,104.103783 528.799744,101.036057 
	C525.514771,97.955513 524.347900,93.988785 525.913269,89.643089 
	C527.451233,85.373558 530.514465,82.803139 535.223022,82.602882 
	C536.380127,82.553673 537.544617,82.679871 539.077148,82.800720 
z"/>
</svg>